HIERARCHY
ROOT root
{
	OFFSET 0.000000 0.000000 0.000000
	CHANNELS 6 Xposition Yposition Zposition Zrotation Yrotation Xrotation
	JOINT lhip
	{
		OFFSET 0.058581 -0.082280 -0.017664
		CHANNELS 3 Zrotation Yrotation Xrotation
		JOINT lknee
		{
			OFFSET 0.043451 -0.386469 0.008037
			CHANNELS 3 Zrotation Yrotation Xrotation
			JOINT lankle
			{
				OFFSET -0.014790 -0.426874 -0.037428
				CHANNELS 3 Zrotation Yrotation Xrotation
				JOINT ltoe
				{
					OFFSET 0.041054 -0.060286 0.122042
					CHANNELS 3 Zrotation Yrotation Xrotation
					End Site
					{
						OFFSET 0.000000 0.000000 0.000000
					}
				}
			}
		}
	}
	JOINT rhip
	{
		OFFSET -0.060310 -0.090513 -0.013543
		CHANNELS 3 Zrotation Yrotation Xrotation
		JOINT rknee
		{
			OFFSET -0.043257 -0.383688 -0.004843
			CHANNELS 3 Zrotation Yrotation Xrotation
			JOINT rankle
			{
				OFFSET 0.019056 -0.420046 -0.034562
				CHANNELS 3 Zrotation Yrotation Xrotation
				JOINT rtoe
				{
					OFFSET -0.034840 -0.062106 0.130323
					CHANNELS 3 Zrotation Yrotation Xrotation
					End Site
					{
						OFFSET 0.000000 0.000000 0.000000
					}
				}
			}
		}
	}
	JOINT lowerback
	{
		OFFSET 0.004439 0.124404 -0.038385
		CHANNELS 3 Zrotation Yrotation Xrotation
		JOINT upperback
		{
			OFFSET 0.004488 0.137956 0.026820
			CHANNELS 3 Zrotation Yrotation Xrotation
			JOINT chest
			{
				OFFSET -0.002265 0.056032 0.002855
				CHANNELS 3 Zrotation Yrotation Xrotation
				JOINT lowerneck
				{
					OFFSET -0.013390 0.211636 -0.033468
					CHANNELS 3 Zrotation Yrotation Xrotation
					JOINT upperneck
					{
						OFFSET 0.010113 0.088937 0.050410
						CHANNELS 3 Zrotation Yrotation Xrotation
						End Site
						{
							OFFSET 0.000000 0.000000 0.000000
						}
					}
				}
				JOINT lclavicle
				{
					OFFSET 0.071702 0.114000 -0.018898
					CHANNELS 3 Zrotation Yrotation Xrotation
					JOINT lshoulder
					{
						OFFSET 0.122921 0.045205 -0.019046
						CHANNELS 3 Zrotation Yrotation Xrotation
						JOINT lelbow
						{
							OFFSET 0.255332 -0.015649 -0.022946
							CHANNELS 3 Zrotation Yrotation Xrotation
							JOINT lwrist
							{
								OFFSET 0.265709 0.012698 -0.007375
								CHANNELS 3 Zrotation Yrotation Xrotation
								End Site
								{
									OFFSET 0.000000 0.000000 0.000000
								}
							}
						}
					}
				}
				JOINT rclavicle
				{
					OFFSET -0.082954 0.112472 -0.023707
					CHANNELS 3 Zrotation Yrotation Xrotation
					JOINT rshoulder
					{
						OFFSET -0.113228 0.046853 -0.008472
						CHANNELS 3 Zrotation Yrotation Xrotation
						JOINT relbow
						{
							OFFSET -0.260127 -0.014369 -0.031269
							CHANNELS 3 Zrotation Yrotation Xrotation
							JOINT rwrist
							{
								OFFSET -0.269108 0.006794 -0.006027
								CHANNELS 3 Zrotation Yrotation Xrotation
								End Site
								{
									OFFSET 0.000000 0.000000 0.000000
								}
							}
						}
					}
				}
			}
		}
	}
}
MOTION
Frames: 18
Frame Time: 0.033333
1.147139 0.172782 0.991629 -87.789688 2.981233 86.220544 1.452728 -0.431684 6.930047 -2.691438 -17.435259 1.722659 4.822874 6.405649 -15.636330 0.000000 -0.000000 0.000000 3.358299 -1.805811 4.785635 3.930117 3.100089 5.672028 3.010566 -3.541251 -10.104317 0.000000 -0.000000 0.000000 -2.004145 1.631704 6.178489 1.574764 -2.512360 3.348556 1.340279 -2.512696 4.877014 4.863358 -1.712032 -4.766291 3.819665 -5.968266 0.730878 -26.261640 5.604930 1.822524 -61.413947 -6.987100 7.137185 10.936358 -29.139014 2.300526 -1.636364 -0.938160 -10.407796 23.989014 -4.085801 -0.607338 62.993009 0.241436 10.532814 -15.723575 29.751763 -4.332254 6.471244 -0.514637 -9.249831 
1.147409 0.172494 0.991851 -87.892518 3.038891 86.464719 1.379537 -0.676421 6.861790 -2.495867 -17.370972 1.417180 4.581120 6.656693 -15.438600 0.000000 -0.000000 0.000000 3.451590 -1.477957 4.641596 3.902072 3.273477 5.386397 3.236708 -3.866350 -9.850464 0.000000 -0.000000 0.000000 -2.058498 1.572780 5.675792 1.658614 -2.355993 3.487710 1.183016 -2.614011 5.665428 5.330031 -0.570221 -6.094848 4.069621 -6.210159 1.476163 -26.460185 5.734186 0.976319 -61.107620 -7.113397 7.968796 10.710380 -28.781112 2.625782 -1.181302 -1.553928 -9.789202 24.647919 -4.274689 -1.608932 62.429713 0.207096 11.465161 -15.560173 29.440464 -4.501070 5.991385 -0.400467 -9.393442 
1.148280 0.172034 0.991938 -87.975958 3.121543 86.478462 1.376577 -0.682707 6.755753 -2.476617 -17.339263 1.529396 4.603796 6.758339 -15.359439 0.000000 -0.000000 0.000000 3.470329 -1.480195 4.583322 3.913073 3.352341 5.290894 3.290771 -3.834999 -9.764242 0.000000 -0.000000 0.000000 -2.031636 1.559873 5.786884 1.729628 -2.442561 3.386044 1.182670 -2.689168 5.578683 5.494303 -1.169317 -5.219478 4.123386 -6.654913 2.210337 -26.517075 5.762035 1.053695 -61.094641 -7.197695 7.956325 10.575061 -28.403966 2.489225 -1.084983 -1.117837 -9.427939 24.692894 -4.288901 -1.499740 62.385257 0.204038 11.487911 -15.533924 29.318548 -4.373373 6.002287 -0.424624 -9.031409 
1.148741 0.171145 0.992077 -88.043898 3.106272 86.286021 1.206369 -0.697424 6.998100 -2.354112 -17.397526 1.450710 4.647216 6.894495 -15.204971 0.000000 -0.000000 0.000000 3.323835 -1.451545 4.847778 3.970397 3.342398 5.065956 3.327801 -3.775189 -9.696661 0.000000 -0.000000 0.000000 -2.106445 1.578777 6.031309 1.792672 -2.573393 3.374878 1.155638 -2.716222 5.544343 5.720779 -2.166933 -3.779038 4.009614 -7.427802 3.419487 -26.569666 5.779180 1.229666 -61.005944 -7.268083 7.961912 10.455506 -27.882158 2.644958 -1.567333 -1.194373 -9.285400 24.615240 -4.323386 -1.291731 62.470263 0.198676 11.426153 -15.516827 28.950610 -4.345623 6.363453 -0.506774 -8.984209 
1.149305 0.170874 0.992007 -88.240572 3.147314 86.236104 1.221840 -0.635522 7.018764 -2.371545 -17.430121 1.459171 4.769517 7.047170 -15.211506 0.000000 -0.000000 0.000000 3.341928 -1.298121 4.852011 4.000550 3.410098 5.074030 3.328491 -3.773373 -9.657676 0.000000 -0.000000 0.000000 -2.195939 1.595721 6.001308 1.890549 -2.582822 3.489505 1.112092 -2.793320 5.587030 5.925444 -2.645669 -2.760987 3.858455 -7.734393 4.519990 -26.454050 5.880217 1.455412 -61.117649 -7.382909 7.995571 10.500806 -27.500394 2.631978 -1.730214 -1.045149 -9.433145 24.368331 -4.434657 -1.350564 62.738003 0.146673 11.563262 -15.302064 28.744573 -4.205346 6.731108 -0.856270 -9.424096 
1.150534 0.170243 0.991927 -88.524239 3.227872 86.291740 1.217037 -0.627284 6.820975 -2.362026 -17.261505 1.565791 4.953557 7.205370 -15.156991 0.000000 -0.000000 0.000000 3.342093 -1.156576 4.604717 4.053948 3.398792 5.178801 3.248440 -3.740550 -9.559091 0.000000 -0.000000 0.000000 -2.249944 1.569129 5.965152 1.980223 -2.606556 3.557354 1.088180 -2.777034 5.635166 5.996768 -3.304739 -1.007395 3.920438 -8.147181 5.461914 -26.403118 5.891111 1.769082 -61.185023 -7.480861 7.965801 10.476919 -26.786455 2.419934 -1.976492 -0.788452 -9.318536 24.321283 -4.369086 -1.163915 62.771143 0.203254 11.508319 -15.349467 28.307260 -4.308786 6.754842 -1.086230 -9.446915 
1.151929 0.169328 0.991801 -88.693517 3.281990 86.082284 1.196152 -0.541529 6.830310 -2.417089 -17.225454 1.757202 4.983127 7.303455 -15.176575 0.000000 -0.000000 0.000000 3.219595 -1.250539 4.620342 4.188399 3.426611 5.336185 3.381582 -3.459692 -9.529116 0.000000 -0.000000 0.000000 -2.336603 1.605867 6.395836 2.100444 -2.698126 3.571929 1.073473 -2.867650 5.536633 6.044936 -4.221651 0.736248 3.722912 -8.837162 6.927290 -26.377963 5.928152 2.151920 -61.161439 -7.588321 7.873504 10.414602 -26.236592 2.478803 -2.207694 -0.747238 -9.198873 24.263501 -4.548031 -1.096190 62.645759 0.340039 11.302458 -15.059417 27.987142 -4.197330 6.887907 -1.002093 -9.303939 
1.153729 0.168542 0.991885 -89.092079 3.396919 86.057428 1.251969 -0.475853 6.624069 -2.537692 -17.135757 2.005675 5.098006 7.494947 -15.273758 0.000000 -0.000000 0.000000 3.213990 -1.144560 4.353989 4.292480 3.456835 5.572853 3.432890 -3.313157 -9.358613 0.000000 -0.000000 0.000000 -2.379038 1.569949 6.714939 2.192360 -2.722624 3.463001 1.023526 -2.906007 5.700809 6.364766 -5.379851 2.250458 3.444851 -9.819525 8.172776 -26.465155 6.182912 2.302389 -60.876364 -7.625140 7.812187 10.314795 -25.869845 2.565125 -2.479713 -0.351891 -8.753877 24.364256 -4.541360 -0.968811 62.510537 0.549515 11.261760 -15.086145 27.760110 -4.289247 6.783163 -0.896195 -8.883870 
1.155672 0.167519 0.991883 -89.435871 3.510688 85.635507 1.350484 -0.345366 6.723976 -2.723532 -16.917632 2.388459 5.243813 7.518659 -15.476311 0.000000 -0.000000 0.000000 3.286349 -1.206852 4.691793 4.242877 3.749685 5.481488 3.346830 -3.253714 -9.297992 0.000000 -0.000000 0.000000 -2.560754 1.734606 6.459540 2.441649 -3.051204 5.042624 1.009286 -2.875181 5.820703 6.549475 -6.277290 3.286138 3.377801 -10.768060 8.960974 -26.350463 5.762228 2.633945 -61.005690 -7.970618 7.759444 10.632526 -25.491679 1.909647 -2.580018 -0.317195 -8.800892 24.296616 -4.164566 -1.214985 62.459291 0.816659 11.124186 -15.221507 27.631803 -4.672782 7.084820 -1.154213 -9.202804 
1.158264 0.165970 0.991902 -89.988810 3.653822 85.666377 1.339567 -0.249907 6.149057 -2.861938 -16.746646 3.094113 5.515939 7.772230 -15.613207 0.000000 -0.000000 0.000000 3.320053 -1.122587 4.453880 4.206043 4.053292 5.413993 3.365602 -3.100261 -9.037997 0.000000 -0.000000 0.000000 -2.612568 1.674535 6.652174 2.540464 -3.129588 5.371504 0.952638 -2.753910 5.882394 6.441622 -7.340499 5.277566 3.146801 -11.340218 10.201926 -26.202460 5.826846 3.154963 -60.899106 -8.007043 7.609047 10.864639 -25.398323 1.858827 -2.849859 -0.035943 -8.746506 24.184710 -4.212326 -0.801820 62.487373 0.991472 10.904246 -15.358021 27.772671 -4.809335 7.174812 -1.251822 -9.226721 
1.160094 0.164438 0.992064 -90.326510 3.837399 85.548346 1.319230 -0.282507 5.797612 -2.914418 -16.599552 3.830304 5.701918 8.109269 -15.918649 0.000000 -0.000000 0.000000 3.347728 -1.154980 4.318490 4.272116 4.085746 5.577991 3.439724 -2.945708 -8.779204 0.000000 -0.000000 0.000000 -2.617670 1.695266 7.056006 2.659591 -3.245055 5.740635 0.966704 -2.895373 6.116080 6.523117 -7.704742 6.095899 3.321751 -11.791787 10.667942 -26.044110 5.987272 3.076169 -60.922271 -8.007036 7.623021 10.857358 -25.264432 1.785940 -2.915706 -0.035082 -8.863903 24.156959 -4.244734 -0.962553 62.374460 1.198475 10.909077 -15.402876 27.933483 -4.984853 6.988264 -1.305825 -9.302214 
1.162333 0.163051 0.992345 -91.053681 3.991663 85.800367 1.253140 -0.210634 4.961658 -2.976474 -16.236362 4.702902 5.975770 8.362262 -16.090532 0.000000 -0.000000 0.000000 3.461447 -0.890784 3.543304 4.183957 4.277059 6.129729 3.705675 -2.806845 -8.831097 0.000000 -0.000000 0.000000 -2.618250 1.680477 7.485454 2.714414 -3.134546 5.247367 0.942012 -3.023466 6.385711 6.490038 -8.214727 6.979115 3.029362 -12.033961 11.445402 -25.763592 6.359327 3.436964 -60.926337 -7.926334 7.509486 10.874907 -25.288206 1.745512 -2.931702 -0.293263 -9.148877 24.073313 -4.577839 -0.796941 62.339290 1.277598 10.974348 -15.316523 28.330659 -4.849203 6.903138 -1.152876 -9.424070 
1.164313 0.161891 0.992540 -91.847321 4.304864 85.777410 1.266605 -0.475484 4.428666 -2.980072 -15.889681 5.587494 6.196039 9.154115 -16.393062 0.000000 -0.000000 0.000000 3.795077 -0.607235 2.768400 4.076539 4.448148 7.235313 4.062249 -2.549267 -9.049503 0.000000 -0.000000 0.000000 -2.610743 1.724063 8.234332 2.911667 -3.032829 5.020601 1.040663 -3.202323 6.535204 6.678820 -8.678715 7.193481 2.592368 -12.421214 12.054003 -25.694633 6.700367 3.371164 -60.790709 -7.763126 7.499879 10.753896 -25.150997 1.768924 -3.105009 -0.367435 -9.132614 24.019901 -4.796621 -0.983236 61.993923 1.241693 11.281514 -15.188407 28.712103 -4.628840 6.686925 -0.559140 -9.396469 
1.168823 0.161325 0.993158 -93.355588 4.770030 85.469054 1.512577 -0.453981 4.075857 -2.951549 -15.314386 6.427090 6.291254 10.121210 -16.563605 0.000000 -0.000000 0.000000 4.571251 0.680865 1.194709 3.784623 4.202639 9.886169 4.585603 -2.532272 -9.848430 0.000000 -0.000000 0.000000 -2.691991 1.454460 9.579700 3.090313 -2.464434 4.938149 1.204605 -3.040736 6.455974 6.694758 -8.368690 7.549306 2.424524 -12.347263 12.414244 -25.611454 6.663012 3.248923 -60.604219 -7.641968 7.276827 10.774251 -24.974180 1.186967 -3.006341 -0.146812 -8.930589 23.873490 -4.738901 -1.140713 62.036211 1.486355 11.399829 -15.147265 28.962495 -4.862746 6.943204 -0.802603 -9.400869 
1.171722 0.161710 0.993591 -94.657259 5.307005 85.475260 1.935944 -0.273401 3.812884 -2.867207 -15.327593 6.861326 6.410231 10.764167 -16.869423 0.000000 -0.000000 0.000000 5.462276 1.988172 -1.837322 3.643478 3.664972 15.456513 5.632478 -3.044939 -13.123436 0.000000 -0.000000 0.000000 -3.067952 1.119944 10.353161 3.531852 -2.116590 4.922533 1.415218 -3.149169 6.604795 7.218412 -7.852740 7.341770 1.924299 -12.674417 12.881838 -25.401540 6.866385 3.361256 -60.593189 -7.176093 7.302272 11.078327 -25.610556 0.555373 -2.403591 -0.140456 -9.143052 24.213028 -4.776909 -1.036050 61.570785 1.055431 11.817455 -16.017737 31.150451 -5.297765 6.222776 -0.298562 -9.396604 
1.174754 0.162007 0.993859 -96.056621 5.553372 85.082807 2.051167 -0.265718 4.071845 -2.851356 -15.452330 7.017582 6.725052 11.915650 -17.180774 0.000000 -0.000000 0.000000 5.573465 3.777879 -6.372469 4.120331 1.376824 24.951653 6.947666 -4.144444 -16.453807 0.000000 -0.000000 0.000000 -3.527306 0.525209 12.244690 3.624342 -1.605867 4.033258 1.395695 -3.301754 6.829966 7.873857 -6.680013 7.126535 1.322170 -12.369015 13.340989 -25.285272 7.322299 3.173221 -60.044237 -6.780102 7.188670 11.025229 -25.696199 0.148732 -2.247786 -0.085040 -8.984666 24.340381 -4.869190 -1.555642 61.724361 1.061796 12.261624 -16.076927 31.727618 -5.562793 6.256404 -0.279517 -9.445927 
1.177001 0.163491 0.995000 -97.281255 6.023517 83.999394 2.707609 0.009499 5.317560 -2.954810 -15.875424 6.761181 7.028078 12.966751 -17.035987 0.000000 -0.000000 0.000000 5.092606 5.713377 -10.714204 5.287814 -2.604072 36.086407 6.786660 -5.054853 -19.721408 0.000000 -0.000000 0.000000 -3.985157 -0.675583 14.190122 3.695812 -1.166222 4.391037 1.293019 -3.282394 6.802778 8.384220 -5.349875 7.018808 0.777303 -11.982265 13.365254 -25.176437 7.003247 3.313475 -59.263324 -6.341438 6.731835 11.306954 -25.959326 -0.674583 -2.722285 0.380671 -9.040553 24.807690 -4.238926 -1.646336 61.654811 1.252853 12.174029 -16.452974 32.686150 -6.126911 6.101102 -0.087873 -9.297383 
1.178179 0.164019 0.995930 -98.033744 6.358341 83.990292 3.098596 0.380798 5.421639 -2.887459 -16.100062 6.612781 7.478140 13.314855 -16.884735 0.000000 -0.000000 0.000000 3.603028 4.747962 -16.854864 5.285585 -6.393076 48.592488 5.946300 -5.828270 -21.876323 0.000000 -0.000000 0.000000 -3.819057 -1.557163 14.826813 3.712039 -1.330329 4.312497 0.822969 -3.660744 7.099066 8.651076 -4.644398 6.867913 0.329674 -11.755263 13.449920 -25.216531 6.926119 3.464778 -58.375338 -6.108838 6.329697 11.196717 -25.790132 -0.887564 -3.030327 0.897228 -8.629593 25.059190 -4.348663 -1.643920 61.616250 1.380629 12.083911 -16.494284 33.985845 -6.333116 6.645119 0.186626 -9.347125 
